<svg fill="none" xmlns="http://www.w3.org/2000/svg" viewBox="0 0 24 24">
    <path d="M21.9 9.442c.109.11.215.22.32.331l-1.415 1.415c-.104-.112-.21-.223-.32-.332-4.686-4.686-12.284-4.686-16.97 0-.11.11-.216.22-.32.332L1.78 9.773c.105-.111.211-.222.32-.33 5.468-5.468 14.332-5.468 19.8 0Z" fill="currentColor"/>
    <path d="M19.071 12.27c.11.11.215.22.318.334l-1.416 1.416a8 8 0 0 0-11.947 0l-1.415-1.416c.103-.113.209-.224.318-.333 3.905-3.906 10.237-3.906 14.142 0Z" fill="currentColor"/>
    <path d="M16.556 15.437a6 6 0 0 0-9.112 0l1.42 1.42a4 4 0 0 1 6.271 0l1.421-1.42ZM12 19.993l1.702-1.702a2 2 0 0 0-3.405 0L12 19.993Z" fill="currentColor"/>
</svg>
