<svg fill="none" xmlns="http://www.w3.org/2000/svg" viewBox="0 0 24 24">
    <path d="M6.75 10.75a1.25 1.25 0 1 0 0 2.5 1.25 1.25 0 0 0 0-2.5ZM16 12a1.25 1.25 0 1 1 2.5 0 1.25 1.25 0 0 1-2.5 0Z" fill="currentColor"/>
    <path fill-rule="evenodd" clip-rule="evenodd" d="M12 9.25a2.75 2.75 0 1 0 0 5.5 2.75 2.75 0 0 0 0-5.5ZM11.25 12a.75.75 0 1 1 1.5 0 .75.75 0 0 1-1.5 0Z" fill="currentColor"/>
    <path fill-rule="evenodd" clip-rule="evenodd" d="M22 6H2v12h20V6ZM4 16V8h16v8H4Z" fill="currentColor"/>
</svg>
