<svg fill="none" xmlns="http://www.w3.org/2000/svg" viewBox="0 0 24 24">
    <path d="M12 16a4 4 0 0 1-3.521-2.1l-1.76.95A6 6 0 0 0 12 18a5.999 5.999 0 0 0 5.28-3.15l-1.759-.95A3.999 3.999 0 0 1 12 16ZM8 9.75a1.25 1.25 0 1 1 2.5 0 1.25 1.25 0 0 1-2.5 0ZM14.75 8.5a1.25 1.25 0 1 0 0 2.5 1.25 1.25 0 0 0 0-2.5Z" fill="currentColor"/>
    <path fill-rule="evenodd" clip-rule="evenodd" d="M12 2C6.477 2 2 6.477 2 12s4.477 10 10 10 10-4.477 10-10S17.523 2 12 2ZM4 12a8 8 0 1 1 16 0 8 8 0 0 1-16 0Z" fill="currentColor"/>
</svg>
