<svg fill="none" xmlns="http://www.w3.org/2000/svg" viewBox="0 0 24 24">
    <path fill-rule="evenodd" clip-rule="evenodd" d="M5.47 10.94a53.997 53.997 0 0 0 7.6 7.598l.719.589a3 3 0 0 0 4.021-.2l1.683-1.684-3.182-3.182-2.652 2.652-6.375-6.375 2.66-2.643-3.179-3.18-1.683 1.683a3 3 0 0 0-.2 4.021l.588.72Zm6.333 9.146a56.01 56.01 0 0 1-7.88-7.88l-.59-.72a5 5 0 0 1 .335-6.702l3.097-3.097L12.778 7.7l-2.66 2.642 3.541 3.542 2.652-2.651 6.01 6.01-3.097 3.098a5 5 0 0 1-6.701.334l-.72-.59Z" fill="currentColor"/>
</svg>
