<svg fill="none" xmlns="http://www.w3.org/2000/svg" viewBox="0 0 24 24">
    <path d="M12 10.5a1.5 1.5 0 1 0 0 3 1.5 1.5 0 0 0 0-3Z" fill="currentColor"/>
    <path fill-rule="evenodd" clip-rule="evenodd" d="M13 2v2.062A8.004 8.004 0 0 1 19.938 11H22v2h-2.062A8.004 8.004 0 0 1 13 19.938V22h-2v-2.062A8.004 8.004 0 0 1 4.062 13H2v-2h2.062A8.004 8.004 0 0 1 11 4.062V2h2ZM6.083 13H8v-2H6.083A6.005 6.005 0 0 1 11 6.083V8h2V6.083A6.005 6.005 0 0 1 17.917 11H16v2h1.917A6.005 6.005 0 0 1 13 17.917V16h-2v1.917A6.005 6.005 0 0 1 6.083 13Z" fill="currentColor"/>
</svg>
