<svg fill="none" xmlns="http://www.w3.org/2000/svg" viewBox="0 0 24 24">
    <path fill-rule="evenodd" clip-rule="evenodd" d="M12 2C6.477 2 2 6.477 2 12s4.477 10 10 10 10-4.477 10-10S17.523 2 12 2ZM4.624 8.896A7.975 7.975 0 0 0 4 12c0 .69.088 1.36.252 2h4.919A3.008 3.008 0 0 1 11 12.17V8h2v4.17A3.009 3.009 0 0 1 14.83 14h4.918c.165-.64.252-1.31.252-2 0-1.1-.222-2.15-.624-3.104l-1.463.845-1-1.732 1.461-.844A7.993 7.993 0 0 0 13 4.062V5.75h-2V4.062a7.993 7.993 0 0 0-5.374 3.103l1.461.844-1 1.732-1.463-.845ZM11 15a1 1 0 1 1 2 0 1 1 0 0 1-2 0Zm3.83 1a3.001 3.001 0 0 1-5.66 0h-4.1A7.997 7.997 0 0 0 12 20a7.997 7.997 0 0 0 6.93-4h-4.1Z" fill="currentColor"/>
</svg>
