<svg fill="none" xmlns="http://www.w3.org/2000/svg" viewBox="0 0 24 24">
    <path d="M11 9v4h4v-2h-2V9h-2Z" fill="currentColor"/>
    <path fill-rule="evenodd" clip-rule="evenodd" d="M17 2H7.025v5.076A6.978 6.978 0 0 0 5 12c0 1.92.773 3.66 2.025 4.924V22H17v-5.101A6.977 6.977 0 0 0 19 12a6.977 6.977 0 0 0-2-4.899V2ZM9.025 16v.019c.831.616 1.86.981 2.975.981a4.978 4.978 0 0 0 3-1 4.992 4.992 0 0 0 2-4 4.992 4.992 0 0 0-2-4 4.978 4.978 0 0 0-3-1 4.978 4.978 0 0 0-2.975.981V8H9a4.992 4.992 0 0 0-2 4c0 1.636.785 3.088 2 4h.025Zm0 4v-1.662A6.973 6.973 0 0 0 12 19c1.074 0 2.09-.242 3-.674V20H9.025ZM15 5.674V4H9.025v1.662A6.973 6.973 0 0 1 12 5c1.074 0 2.09.242 3 .674Z" fill="currentColor"/>
</svg>
