<svg fill="none" xmlns="http://www.w3.org/2000/svg" viewBox="0 0 24 24">
    <path fill-rule="evenodd" clip-rule="evenodd" d="M12 2C6.477 2 2 6.477 2 12c0 5.522 4.476 9.999 9.998 10h.004C17.524 21.999 22 17.522 22 12c0-5.523-4.477-10-10-10Zm-7.86 8.5a8.043 8.043 0 0 0 0 3h2.943a13.68 13.68 0 0 1 0-3H4.14Zm.664-2H7.45a14.92 14.92 0 0 1 1.295-3.337c.116-.216.235-.423.355-.62A8.028 8.028 0 0 0 4.804 8.5Zm4.293 2a11.737 11.737 0 0 0 0 3h5.806a11.733 11.733 0 0 0 0-3H9.097Zm5.38-2H9.523a12.85 12.85 0 0 1 .982-2.39c.406-.757.828-1.342 1.18-1.723a3.15 3.15 0 0 1 .314-.3c.085.069.19.167.313.3.353.38.775.966 1.181 1.722.37.69.716 1.498.982 2.391Zm2.44 2a13.7 13.7 0 0 1 0 3h2.943a8.04 8.04 0 0 0 0-3h-2.943Zm2.279-2H16.55a14.919 14.919 0 0 0-1.295-3.337 13.05 13.05 0 0 0-.355-.62A8.028 8.028 0 0 1 19.196 8.5ZM9.099 19.458A8.028 8.028 0 0 1 4.804 15.5H7.45a14.92 14.92 0 0 0 1.295 3.337c.116.216.235.423.355.62Zm1.407-1.567a12.85 12.85 0 0 1-.982-2.391h4.952a12.85 12.85 0 0 1-.982 2.39c-.406.757-.828 1.342-1.18 1.723a3.15 3.15 0 0 1-.314.3 3.15 3.15 0 0 1-.313-.3c-.353-.38-.775-.966-1.181-1.722Zm4.75.946c.505-.94.972-2.073 1.295-3.337h2.645a8.028 8.028 0 0 1-4.295 3.958c.12-.198.239-.405.355-.62Z" fill="currentColor"/>
</svg>
