<svg fill="none" xmlns="http://www.w3.org/2000/svg" viewBox="0 0 24 24">
    <path fill-rule="evenodd" clip-rule="evenodd" d="m3.25 3.336 2.69 2.69C7.423 4.875 9.406 4 12 4c3.888 0 6.403 1.963 7.911 3.882a12.81 12.81 0 0 1 1.931 3.48 7.67 7.67 0 0 1 .116.351l.002.008v.002l.001.001L21 12c.962.275.961.275.961.276v.004l-.003.007-.001.005a10.77 10.77 0 0 1-3.995 5.756l2.702 2.702-1.25 1.25L2 4.586l1.25-1.25Zm15.089 11.546a8.62 8.62 0 0 1-1.807 1.736l-2.099-2.1.084-.085a3.5 3.5 0 0 0-4.95-4.95l-.086.084-2.113-2.113C8.53 6.609 10.041 6 12 6c3.112 0 5.097 1.537 6.339 3.118A10.812 10.812 0 0 1 19.946 12a10.814 10.814 0 0 1-1.607 2.882Zm-5.26-1.84-.06.062-2.123-2.123.062-.06a1.5 1.5 0 0 1 2.121 2.121Zm6.96-.765Z" fill="currentColor"/>
    <path d="M3.415 8.83a13.039 13.039 0 0 0-.904 1.664 11.556 11.556 0 0 0-.44 1.123 5.236 5.236 0 0 0-.029.096l-.002.008v.002l-.001.001L3 12l-.962-.275L1.96 12l.078.275L3 12c-.962.275-.961.275-.961.276v.004l.002.002.001.005a1.926 1.926 0 0 0 .03.096c.02.061.048.147.086.254a12.815 12.815 0 0 0 1.93 3.48C5.598 18.038 8.113 20 12 20c.84 0 1.616-.092 2.331-.255l-1.763-1.762A9.162 9.162 0 0 1 12 18c-3.112 0-5.097-1.537-6.339-3.118A10.817 10.817 0 0 1 4.054 12c.06-.167.152-.402.279-.682.137-.303.314-.657.536-1.035L3.415 8.83ZM21 12l.962-.275.078.275-.078.275L21 12Z" fill="currentColor"/>
</svg>
