<svg fill="none" xmlns="http://www.w3.org/2000/svg" viewBox="0 0 24 24">
    <path d="M16.224 7.775a1.25 1.25 0 1 0-1.768 1.768 1.25 1.25 0 0 0 1.768-1.768Z" fill="currentColor"/>
    <path fill-rule="evenodd" clip-rule="evenodd" d="m21.245 2.754-.885 7.962-2.67 2.604 1.295 4.422-4.529 4.529-2.933-2.934-2.318 2.261-7.071-7.071 2.317-2.261-2.723-2.723 4.53-4.53 4.328 1.269 2.711-2.645 7.948-.883Zm-8.29 15.186 3.115-3.038.663 2.264-2.277 2.276-1.502-1.502ZM8.942 7.885l-3.06 2.985-1.326-1.326 2.276-2.277 2.11.618Zm5.258-2.335L4.98 14.544l4.242 4.243 9.23-9.003.53-4.766-4.78.531Z" fill="currentColor"/>
</svg>
