<svg fill="none" xmlns="http://www.w3.org/2000/svg" viewBox="0 0 24 24">
    <path fill-rule="evenodd" clip-rule="evenodd" d="M6 6.17V3H4v3.17a3.001 3.001 0 0 0 0 5.66V21h2v-9.17a3.001 3.001 0 0 0 0-5.66ZM4 9a1 1 0 1 1 2 0 1 1 0 0 1-2 0ZM11 13.17a3.001 3.001 0 0 0 0 5.66V21h2v-2.17a3.001 3.001 0 0 0 0-5.66V3h-2v10.17ZM11 16a1 1 0 1 1 2 0 1 1 0 0 1-2 0ZM20 8.17V3h-2v5.17a3.001 3.001 0 0 0 0 5.66V21h2v-7.17a3.001 3.001 0 0 0 0-5.66ZM18 11a1 1 0 1 1 2 0 1 1 0 0 1-2 0Z" fill="currentColor"/>
</svg>
