<svg fill="none" xmlns="http://www.w3.org/2000/svg" viewBox="0 0 24 24">
    <path fill-rule="evenodd" clip-rule="evenodd" d="M4.924 6.735C4.33 7.508 4 8.598 4 9.767c0 1.172.461 2.369 1.24 3.546.777 1.175 1.832 2.271 2.918 3.22A28.505 28.505 0 0 0 12 19.339a28.497 28.497 0 0 0 3.842-2.807c1.086-.948 2.14-2.044 2.918-3.219.779-1.177 1.24-2.374 1.24-3.546 0-1.17-.33-2.26-.92-3.033C18.512 5.99 17.677 5.5 16.5 5.5c-1.203 0-2.11.497-2.735 1.018a5.045 5.045 0 0 0-.87.94 2.26 2.26 0 0 0-.035.053l-.005.007-.851 1.42-.857-1.417-.005-.007a3.851 3.851 0 0 0-.204-.278 5.106 5.106 0 0 0-.707-.717C9.603 5.997 8.696 5.5 7.5 5.5c-1.168 0-2.005.49-2.576 1.235ZM12 20.5l-.486.874-.002-.001-.007-.004-.023-.013a10.989 10.989 0 0 1-.383-.224 30.49 30.49 0 0 1-4.256-3.093c-1.165-1.017-2.36-2.246-3.27-3.622C2.662 13.044 2 11.464 2 9.767c0-1.515.425-3.059 1.336-4.248C4.268 4.302 5.68 3.5 7.5 3.5c1.791 0 3.135.753 4.01 1.481a7.1 7.1 0 0 1 .488.447c.144-.145.306-.295.487-.446.875-.73 2.218-1.482 4.015-1.482 1.824 0 3.238.801 4.17 2.02C21.58 6.71 22 8.253 22 9.767c0 1.697-.664 3.277-1.572 4.65-.91 1.376-2.106 2.605-3.27 3.622a30.495 30.495 0 0 1-4.663 3.33l-.006.004-.003.001L12 20.5Zm0 0 .485.874-.485.27-.485-.27L12 20.5Z" fill="currentColor"/>
</svg>
