<svg fill="none" xmlns="http://www.w3.org/2000/svg" viewBox="0 0 24 24">
    <path fill-rule="evenodd" clip-rule="evenodd" d="M12 8.5a3.5 3.5 0 1 0 0 7 3.5 3.5 0 0 0 0-7ZM10.5 12a1.5 1.5 0 1 1 3 0 1.5 1.5 0 0 1-3 0Z" fill="currentColor"/>
    <path fill-rule="evenodd" clip-rule="evenodd" d="M12 4C8.112 4 5.597 5.963 4.089 7.882a12.815 12.815 0 0 0-1.931 3.48 7.904 7.904 0 0 0-.116.351l-.002.008v.002l-.001.001L3 12l-.962-.275L1.96 12l.078.275L3 12c-.962.275-.961.275-.961.276v.004l.002.002.001.005a1.926 1.926 0 0 0 .03.096c.02.061.048.147.086.254a12.815 12.815 0 0 0 1.93 3.48C5.598 18.038 8.113 20 12 20s6.403-1.963 7.911-3.882a12.81 12.81 0 0 0 1.931-3.48 7.67 7.67 0 0 0 .113-.34l.003-.011.001-.004.001-.003v-.003l.001-.001L21 12l.962.275.078-.275-.078-.275L21 12c.962-.275.961-.275.961-.276v-.004l-.003-.007a3.79 3.79 0 0 0-.03-.096 11.513 11.513 0 0 0-.44-1.123c-.32-.71-.827-1.658-1.577-2.612C18.403 5.962 15.888 4 12 4Zm-7.667 8.682A9.664 9.664 0 0 1 4.054 12a10.816 10.816 0 0 1 1.607-2.882C6.903 7.538 8.888 6 12 6c3.112 0 5.097 1.537 6.339 3.118A10.812 10.812 0 0 1 19.946 12a10.814 10.814 0 0 1-1.607 2.882C17.097 16.462 15.112 18 12 18c-3.112 0-5.097-1.537-6.339-3.118a10.817 10.817 0 0 1-1.328-2.2Z" fill="currentColor"/>
</svg>
