<svg fill="none" xmlns="http://www.w3.org/2000/svg" viewBox="0 0 24 24">
    <path fill-rule="evenodd" clip-rule="evenodd" d="M15.828 3.929a3 3 0 0 1 4.243 4.242L18.74 9.502l2.475 7.425-3.489 3.488-3.575-6.324-2.488 2.488.973 1.856-3.172 3.171-7.071-7.07 3.172-3.172 1.856.972 2.488-2.488-6.325-3.575 3.489-3.488 7.424 2.474 1.331-1.33Zm2.829 1.414a1 1 0 0 0-1.415 0l-2.205 2.205-7.424-2.475-.754.754 6.325 3.575-5.389 5.388-1.856-.972-.718.717 4.243 4.243.718-.718-.973-1.856 5.389-5.388 3.575 6.325.754-.754-2.475-7.425 2.204-2.205a1 1 0 0 0 0-1.414Z" fill="currentColor"/>
</svg>
