<svg fill="none" xmlns="http://www.w3.org/2000/svg" viewBox="0 0 24 24">
    <path fill-rule="evenodd" clip-rule="evenodd" d="M12 6a3 3 0 1 0 0 6 3 3 0 0 0 0-6Zm-1 3a1 1 0 1 1 2 0 1 1 0 0 1-2 0Z" fill="currentColor"/>
    <path fill-rule="evenodd" clip-rule="evenodd" d="M12 2a7 7 0 0 0-6.34 9.973L2.159 18.04l4.371.428 2.557 3.572 2.912-5.043 2.912 5.043 2.556-3.572 4.372-.428-3.5-6.063A7 7 0 0 0 12 2ZM5.442 16.352l1.47-2.545a6.993 6.993 0 0 0 3.461 2.003l-1.467 2.542-1.279-1.786-2.185-.214Zm11.644-2.543a6.992 6.992 0 0 1-3.463 2.002l1.467 2.541 1.278-1.786 2.186-.214-1.468-2.543ZM7 9a5 5 0 1 1 10 0A5 5 0 0 1 7 9Z" fill="currentColor"/>
</svg>
