<svg fill="none" xmlns="http://www.w3.org/2000/svg" viewBox="0 0 24 24">
    <path d="M11.375 4a4.377 4.377 0 0 0-4.277 3.451l-.112.52-.494.198a2.376 2.376 0 1 0 2.116 4.236L9 12.167v2.271A4.375 4.375 0 0 1 5.268 6.54a6.377 6.377 0 0 1 10.758-2.525A5.375 5.375 0 1 1 15 14.714v-2.022A3.375 3.375 0 1 0 15.574 6l-.487.008-.306-.38A4.365 4.365 0 0 0 11.375 4Z" fill="currentColor"/>
    <path d="M13 18.586V9h-2v9.586L9.375 16.96l-1.414 1.414L12 22.415l4.04-4.04-1.415-1.414L13 18.586Z" fill="currentColor"/>
</svg>
