<svg fill="none" xmlns="http://www.w3.org/2000/svg" viewBox="0 0 24 24">
    <path fill-rule="evenodd" clip-rule="evenodd" d="M12 2a8 8 0 0 0-6.4 12.8c.494.659 1.064 1.234 1.597 1.757l.216.211c.465.455.892.873 1.28 1.326l.346.406h5.922l.347-.406c.387-.453.814-.87 1.279-1.325l.215-.212c.534-.523 1.104-1.098 1.599-1.757A8 8 0 0 0 12 2Zm-6 8a6 6 0 1 1 10.802 3.599c-.397.527-.871 1.01-1.4 1.531l-.208.203c-.372.364-.77.753-1.147 1.167H9.953c-.377-.414-.775-.803-1.147-1.167l-.207-.203c-.53-.52-1.004-1.004-1.4-1.531A5.97 5.97 0 0 1 6 10Z" fill="currentColor"/>
    <path d="M15 22v-2H9v2h6Z" fill="currentColor"/>
</svg>
