<svg fill="none" xmlns="http://www.w3.org/2000/svg" viewBox="0 0 24 24">
    <path fill-rule="evenodd" clip-rule="evenodd" d="M12 6.5a3.5 3.5 0 1 0 0 7 3.5 3.5 0 0 0 0-7ZM10.5 10a1.5 1.5 0 1 1 3 0 1.5 1.5 0 0 1-3 0Z" fill="currentColor"/>
    <path fill-rule="evenodd" clip-rule="evenodd" d="M12 2a8 8 0 0 0-8 8c0 1.472.511 2.948 1.206 4.288.7 1.35 1.62 2.628 2.522 3.723a34.237 34.237 0 0 0 3.608 3.737l.006.005.007.006L12 21l-.65.76.65.557.65-.558L12 21c.65.76.651.76.651.759l.007-.006.007-.006.01-.01a20.69 20.69 0 0 0 .298-.264 34.235 34.235 0 0 0 3.299-3.462c.902-1.095 1.823-2.374 2.522-3.723C19.489 12.948 20 11.472 20 10a8 8 0 0 0-8-8Zm.395 17.269c-.143.14-.276.267-.395.38a32.263 32.263 0 0 1-2.728-2.909c-.848-1.03-1.677-2.19-2.29-3.372C6.363 12.177 6 11.028 6 10a6 6 0 1 1 12 0c0 1.028-.364 2.177-.982 3.368-.613 1.182-1.442 2.341-2.29 3.371a32.268 32.268 0 0 1-2.333 2.53Z" fill="currentColor"/>
</svg>
