<svg fill="none" xmlns="http://www.w3.org/2000/svg" viewBox="0 0 24 24">
    <path fill-rule="evenodd" clip-rule="evenodd" d="M12 6a3 3 0 1 0 0 6 3 3 0 0 0 0-6Zm-1 3a1 1 0 1 1 2 0 1 1 0 0 1-2 0Z" fill="currentColor"/>
    <path fill-rule="evenodd" clip-rule="evenodd" d="M5 9a7 7 0 1 1 12 4.899v8.653l-5-2.269-5 2.269v-8.653A6.977 6.977 0 0 1 5 9Zm10 4A5 5 0 1 0 9 13H9c.836.628 1.874 1 3 1a4.978 4.978 0 0 0 3-1Zm-6 6.448v-4.122a6.952 6.952 0 0 0 2 .603v2.612l-2 .907Zm6-4.122a6.952 6.952 0 0 1-2 .603v2.612l2 .907v-4.122Z" fill="currentColor"/>
</svg>
