<svg fill="none" xmlns="http://www.w3.org/2000/svg" viewBox="0 0 24 24">
    <path d="m10.862 15.412 5.902-5.885-1.412-1.416-4.49 4.477-2.214-2.208-1.412 1.416 3.626 3.616Z" fill="currentColor"/>
    <path fill-rule="evenodd" clip-rule="evenodd" d="M15.636 3.47 12 1.912 8.364 3.47 4 2.847V11.9a9.75 9.75 0 0 0 4.945 8.484l3.122 1.768 3.053-1.76A9.75 9.75 0 0 0 20 11.944V2.847l-4.364.623Zm-7 2.06L12 4.088l3.364 1.442L18 5.153v6.792a7.75 7.75 0 0 1-3.879 6.714l-2.063 1.19-2.127-1.206A7.75 7.75 0 0 1 6 11.9V5.153l2.636.377Z" fill="currentColor"/>
</svg>
